<?xml version="1.0" standalone="no"?>
<!DOCTYPE svg PUBLIC "-//W3C//DTD SVG 20010904//EN"
 "http://www.w3.org/TR/2001/REC-SVG-20010904/DTD/svg10.dtd">
<svg version="1.0" xmlns="http://www.w3.org/2000/svg"
 width="650.000000pt" height="488.000000pt" viewBox="0 0 650.000000 488.000000"
 preserveAspectRatio="xMidYMid meet">
<metadata>
Created by potrace 1.16, written by Peter Selinger 2001-2019
</metadata>
<g transform="translate(0.000000,488.000000) scale(0.100000,-0.100000)"
fill="#000000" stroke="none">
<path d="M1185 2896 c-82 -20 -146 -56 -206 -115 -100 -100 -145 -237 -136
-411 11 -211 103 -356 267 -422 46 -18 76 -22 175 -22 124 -1 180 10 288 56
l47 21 -2 181 -3 181 -167 3 -168 2 0 -40 0 -40 130 0 130 0 0 -124 0 -124
-47 -16 c-177 -57 -340 -40 -437 46 -89 78 -128 181 -128 336 1 238 110 385
311 422 93 17 185 1 312 -54 11 -5 20 3 31 28 l17 34 -49 21 c-113 48 -258 63
-365 37z"/>
<path d="M4090 2415 l0 -488 198 6 c204 6 259 15 347 59 177 89 273 299 244
533 -22 179 -124 297 -298 347 -51 15 -113 21 -278 25 l-213 6 0 -488z m450
326 c67 -25 120 -77 152 -146 32 -72 32 -234 -1 -318 -34 -87 -77 -137 -152
-175 -58 -30 -76 -34 -177 -39 l-112 -6 0 358 0 358 118 -6 c83 -4 133 -11
172 -26z"/>
<path d="M5005 2889 c-3 -8 -4 -225 -3 -484 l3 -470 195 1 c217 0 275 11 347
63 115 83 136 258 43 363 -34 39 -70 61 -135 83 -18 6 -16 9 16 25 180 94 166
347 -23 405 -74 23 -435 34 -443 14z m370 -135 c85 -40 79 -169 -11 -225 -29
-17 -57 -24 -121 -27 l-83 -5 0 137 0 136 91 0 c62 0 102 -5 124 -16z m30
-400 c27 -14 47 -34 63 -64 27 -55 28 -92 1 -146 -31 -65 -79 -84 -207 -84
l-102 0 0 161 0 161 103 -4 c77 -2 112 -8 142 -24z"/>
<path d="M1910 2650 c-66 -14 -130 -40 -130 -53 0 -7 3 -22 6 -33 l6 -21 51
19 c29 11 86 22 127 25 64 5 82 2 118 -16 52 -27 79 -76 88 -162 l6 -64 -138
0 c-134 0 -141 -1 -199 -30 -75 -37 -113 -88 -122 -162 -12 -105 40 -193 132
-223 83 -27 213 4 287 69 l36 31 7 -50 c7 -49 7 -50 42 -50 l35 0 -4 268 c-4
215 -8 275 -21 310 -39 102 -95 141 -211 147 -39 2 -91 0 -116 -5z m254 -366
c13 -5 16 -23 16 -94 l0 -88 -44 -39 c-59 -52 -130 -77 -207 -71 -80 6 -119
42 -127 116 -8 84 36 146 118 170 39 11 219 15 244 6z"/>
<path d="M3204 2650 c-115 -27 -174 -142 -125 -243 26 -54 68 -84 181 -133
110 -47 146 -75 161 -123 10 -33 9 -45 -7 -77 -30 -60 -63 -78 -152 -82 -57
-3 -92 1 -134 15 l-57 20 -11 -31 c-8 -22 -7 -32 2 -38 33 -21 101 -33 188
-32 77 0 102 4 135 21 73 39 115 105 115 182 0 95 -38 136 -196 211 -73 35
-130 69 -143 85 -30 40 -28 87 8 127 27 30 34 33 102 36 56 3 88 -1 131 -16
l57 -20 10 29 c12 34 3 41 -85 64 -61 16 -128 18 -180 5z"/>
<path d="M3668 2645 c-63 -20 -103 -63 -118 -123 -25 -108 29 -180 190 -247
49 -21 107 -52 127 -70 35 -30 38 -37 38 -83 0 -57 -26 -94 -82 -118 -45 -19
-158 -17 -219 4 l-52 18 -10 -32 c-8 -28 -7 -33 13 -42 45 -21 147 -35 210
-29 98 9 178 60 204 130 20 52 13 126 -15 174 -23 40 -38 50 -159 109 -78 37
-142 75 -154 91 -39 49 -21 117 39 148 40 21 143 18 208 -4 l53 -18 10 24 c12
33 7 38 -49 58 -68 23 -177 28 -234 10z"/>
<path d="M2888 2642 c-17 -3 -18 -24 -18 -267 l0 -263 -45 -40 c-68 -60 -110
-77 -187 -77 -57 0 -70 4 -93 25 -52 47 -55 68 -55 355 l0 265 -40 0 -40 0 0
-263 c0 -287 7 -338 56 -396 36 -44 100 -65 177 -59 70 6 107 22 185 79 51 39
52 39 52 16 0 -14 3 -39 6 -56 6 -27 11 -31 38 -31 l31 0 -3 312 c-3 414 -2
401 -27 403 -11 0 -28 -1 -37 -3z"/>
</g>
</svg>
